<?xml version="1.0" encoding="UTF-8"?>
<svg id="Layer_1" data-name="Layer 1" xmlns="http://www.w3.org/2000/svg" xmlns:xlink="http://www.w3.org/1999/xlink" viewBox="0 0 979.28 884.4">
  <defs>
    <style>
      .cls-1 {
        fill: #f48688;
      }

      .cls-1, .cls-2, .cls-3, .cls-4 {
        stroke-width: 0px;
      }

      .cls-5 {
        filter: url(#drop-shadow-2);
      }

      .cls-5, .cls-6, .cls-2, .cls-7 {
        fill: #fcf8ef;
      }

      .cls-5, .cls-6, .cls-7 {
        stroke: #fcf8ef;
        stroke-miterlimit: 10;
        stroke-width: .25px;
      }

      .cls-6 {
        filter: url(#drop-shadow-4);
      }

      .cls-3 {
        fill: #f7a7a8;
      }

      .cls-8 {
        filter: url(#drop-shadow-1);
      }

      .cls-7 {
        filter: url(#drop-shadow-3);
      }

      .cls-9 {
        filter: url(#drop-shadow-5);
      }

      .cls-4 {
        fill: #f4eee2;
      }
    </style>
    <filter id="drop-shadow-1" filterUnits="userSpaceOnUse">
      <feOffset dx="0" dy="0"/>
      <feGaussianBlur result="blur" stdDeviation="5"/>
      <feFlood flood-color="#231f20" flood-opacity=".5"/>
      <feComposite in2="blur" operator="in"/>
      <feComposite in="SourceGraphic"/>
    </filter>
    <filter id="drop-shadow-2" filterUnits="userSpaceOnUse">
      <feOffset dx="0" dy="0"/>
      <feGaussianBlur result="blur-2" stdDeviation="5"/>
      <feFlood flood-color="#231f20" flood-opacity=".5"/>
      <feComposite in2="blur-2" operator="in"/>
      <feComposite in="SourceGraphic"/>
    </filter>
    <filter id="drop-shadow-3" filterUnits="userSpaceOnUse">
      <feOffset dx="0" dy="0"/>
      <feGaussianBlur result="blur-3" stdDeviation="5"/>
      <feFlood flood-color="#231f20" flood-opacity=".5"/>
      <feComposite in2="blur-3" operator="in"/>
      <feComposite in="SourceGraphic"/>
    </filter>
    <filter id="drop-shadow-4" filterUnits="userSpaceOnUse">
      <feOffset dx="0" dy="0"/>
      <feGaussianBlur result="blur-4" stdDeviation="5"/>
      <feFlood flood-color="#231f20" flood-opacity=".5"/>
      <feComposite in2="blur-4" operator="in"/>
      <feComposite in="SourceGraphic"/>
    </filter>
    <filter id="drop-shadow-5" filterUnits="userSpaceOnUse">
      <feOffset dx="0" dy="0"/>
      <feGaussianBlur result="blur-5" stdDeviation="5"/>
      <feFlood flood-color="#231f20" flood-opacity=".5"/>
      <feComposite in2="blur-5" operator="in"/>
      <feComposite in="SourceGraphic"/>
    </filter>
  </defs>
  <image width="2100" height="1500" transform="translate(-51.25 56.92) scale(.51)" xlink:href="../../../Downloads/2830_Final_Project_Logo.png"/>
  <g class="cls-8">
    <path class="cls-3" d="M532.57,264.99l113.48-10.77c2.47-.26,4.63-1.74,5.82-3.97l40.97-73.29c1.11-1.98-1.07-4.26-2.99-3.12l-87.88,15.08-69.4,76.07Z"/>
    <path class="cls-3" d="M523.44,242.93s-4.54,16.53,9.13,22.06l70.49-66.81,87.16-16.76"/>
    <path class="cls-2" d="M645.65,249.91s-7.79-5.29-6.8-23.7l-110.52,15.32s-5.91,11.62,5.9,20.54l111.42-12.16Z"/>
    <path class="cls-4" d="M645.65,249.91l42.81-74.37s-7.1-6.85-5.72-19.91l-43.66,70.68s-3.5,15.2,6.57,23.6Z"/>
    <path class="cls-4" d="M527.1,245.59l113.66-12.75,42.59-67.3-1.57-9.13s-148.16,80.17-148.91,80.55-3.98,3.59-3.98,3.59l-1.79,5.03Z"/>
    <path class="cls-3" d="M523.44,242.93l116.71-14.02,46.64-74.61s1.26-2.07-4.56-.4c-2.53.73-89.3,17.77-89.3,17.77l-69.49,71.26Z"/>
  </g>
  <path class="cls-5" d="M793.64,179.71c2.04,14.1.69,29.06-7.26,40.89-7.95,11.83-14.34,21.74-35.13,22.15,27.46,2.67,52.63,26.81,52.08,55.33-3.3-24.93,13.65-55.23,40.48-63.45-40.96,4.26-46.28-27.99-50.17-54.93Z"/>
  <path class="cls-4" d="M794.79,197.34c1.43,9.9.49,20.4-5.1,28.71-5.58,8.3-10.07,15.26-24.66,15.55,19.28,1.88,36.95,18.82,36.56,38.85-2.32-17.5,9.58-38.77,28.42-44.54-28.75,2.99-32.49-19.65-35.22-38.56Z"/>
  <path class="cls-7" d="M139.86,298.08c2.04,14.1.69,29.06-7.26,40.89-7.95,11.83-14.34,21.74-35.13,22.15,27.46,2.67,52.63,26.81,52.08,55.33-3.3-24.93,13.65-55.23,40.48-63.45-40.96,4.26-46.28-27.99-50.17-54.93Z"/>
  <path class="cls-4" d="M141.01,315.71c1.43,9.9.49,20.4-5.1,28.71-5.58,8.3-10.07,15.26-24.66,15.55,19.28,1.88,36.95,18.82,36.56,38.85-2.32-17.5,9.58-38.77,28.42-44.54-28.75,2.99-32.49-19.65-35.22-38.56Z"/>
  <path class="cls-6" d="M701.08,650.48c2.04,14.1.69,29.06-7.26,40.89-7.95,11.83-14.34,21.74-35.13,22.15,27.46,2.67,52.63,26.81,52.08,55.33-3.3-24.93,13.65-55.23,40.48-63.45-40.96,4.26-46.28-27.99-50.17-54.93Z"/>
  <path class="cls-4" d="M702.24,668.11c1.43,9.9.49,20.4-5.1,28.71-5.58,8.3-10.07,15.26-24.66,15.55,19.28,1.88,36.95,18.82,36.56,38.85-2.32-17.5,9.58-38.77,28.42-44.54-28.75,2.99-32.49-19.65-35.22-38.56Z"/>
  <g class="cls-9">
    <path class="cls-3" d="M757.27,480.65l-54.19,82.76,48.85,43.73s4.08,8.91,13.62,8.92,69.8,21.83,69.8,21.83l55.47-81.92-82.98-19.08-50.57-56.24Z"/>
    <polyline class="cls-1" points="760.52 479.75 807.84 536.9 759.89 610.15 706.13 562.84"/>
    <polygon class="cls-3" points="890.83 555.97 889.71 552.49 834.34 634.11 835.36 637.89 890.83 555.97"/>
    <polygon class="cls-1" points="889.71 552.49 807.01 538.17 759.89 610.15 834.34 634.11 889.71 552.49"/>
    <path class="cls-2" d="M764.04,484.33l8.68-.92s52.38,27.68,35.63,52.7l-45.27,69.14-48.86-44.84,49.81-76.08Z"/>
    <path class="cls-4" d="M885.08,550.73l-6.48-10.85s-56.25-21.77-71.59-1.7l-43.92,67.08,73.02,20.27,48.97-74.8Z"/>
  </g>
</svg>